<svg data-name="Layer 1" xmlns="http://www.w3.org/2000/svg" width="893.867" height="645.616"><path d="M557.088 645.273c8.8-19.007 17.592-38.294 21.411-58.888s2.216-42.942-8.72-60.804-32.473-29.974-53.025-25.936c-16.88 3.316-30.433 16.61-38.369 31.873s-11.12 32.476-14.207 49.4c-.997-19.227-2.054-38.762-8.44-56.923s-18.963-35.086-36.886-42.114-41.238-1.5-50.685 15.274c-13.308 23.632 4.338 56.782-10.965 79.175-2.624-22.462-26.114-40.209-48.438-36.597s-39.019 27.861-34.426 50.005c2.732 13.176 11.722 24.383 22.47 32.48s23.248 17.48 35.614 22.787z" fill="#f2f2f2"/><path d="M286.059 555.603c17.733 6.199 35.63 12.467 51.819 22.158 14.51 8.685 27.43 20.379 35.59 35.354a62.87 62.87 0 017.777 26.121c.118 1.918 3.119 1.932 3 0-1.05-17.078-9.372-32.707-20.897-45.068-12.637-13.552-29.011-22.807-45.918-29.989-10.024-4.258-20.297-7.877-30.574-11.469-1.826-.638-2.61 2.26-.797 2.893zM388.346 484.859a270.255 270.255 0 0125.994 57.706 273.524 273.524 0 0111.99 62.14 270.113 270.113 0 01.285 35.506c-.111 1.928 2.89 1.922 3 0a273.67 273.67 0 00-3.846-63.747 276.936 276.936 0 00-18.413-61.145 270.01 270.01 0 00-16.42-31.974 1.501 1.501 0 00-2.59 1.514zM535.177 502.091a437.368 437.368 0 00-32.262 108.528q-2.53 15.766-3.917 31.688c-.167 1.923 2.834 1.911 3 0a435.796 435.796 0 0124.01-109.37q5.34-14.875 11.76-29.331c.776-1.75-1.808-3.277-2.59-1.515z" fill="#fff"/><path d="M106.07 643.029A141.78 141.78 0 01.015 503.635c.122-7.912.954-15.99 4.28-23.17s9.504-13.39 17.232-15.092c8.434-1.857 17.333 1.939 23.619 7.861s10.406 13.736 14.198 21.495c22.837 46.734 40.19 96.88 46.686 148.488z" fill="#f2f2f2"/><path d="M17.702 466.932L33.708 503.3l16.006 36.368c5.069 11.517 10.128 23.04 15.368 34.481 5.193 11.34 10.565 22.603 16.295 33.684 5.722 11.065 11.804 21.95 18.405 32.515q1.233 1.974 2.49 3.932c.58.905 2.03.066 1.447-.845-6.728-10.488-12.928-21.305-18.742-32.324-5.82-11.03-11.26-22.257-16.5-33.574-5.268-11.377-10.332-22.847-15.383-34.321q-7.976-18.117-15.948-36.235l-16.007-36.367-1.991-4.526c-.434-.984-1.877-.133-1.446.845z" fill="#fff"/><path d="M99.392 643.281A82.967 82.967 0 016.7 599.541c-2.073-4.141-3.821-8.56-4.033-13.185s1.32-9.518 4.872-12.487c3.878-3.241 9.523-3.673 14.385-2.295s9.111 4.322 13.174 7.327c24.474 18.098 47.02 39.448 64.325 64.489z" fill="#f2f2f2"/><path d="M5.974 575.711l18.128 14.56 18.128 14.56c5.74 4.612 11.478 9.228 17.287 13.754 5.758 4.486 11.587 8.883 17.554 13.089 5.958 4.2 12.054 8.209 18.333 11.912q1.173.692 2.355 1.37c.545.312 1.071-.515.522-.83-6.324-3.628-12.463-7.571-18.456-11.722-6-4.156-11.855-8.516-17.63-12.977-5.807-4.485-11.533-9.072-17.253-13.666L26.88 591.254l-18.128-14.56-2.256-1.812c-.49-.394-1.01.437-.522.83z" fill="#fff"/><path d="M870.966 645.616H43.672a1.19 1.19 0 110-2.381h827.294a1.19 1.19 0 110 2.38zM849.233 526.323h-56.01a2.501 2.501 0 01-2.5 2.5h-54.98a12.86 12.86 0 00-2.11 2 12.41 12.41 0 00-2.9 8v2a12.505 12.505 0 0012.5 12.5h106a12.51 12.51 0 0012.5-12.5v-2a12.517 12.517 0 00-12.5-12.5z" fill="#3f3d56"/><path fill="#3f3d56" d="M790.228 552.827h13v92h-13z"/><path d="M840.228 644.37c0 1.405-19.7.543-44 .543s-44 .862-44-.543 19.7-12.543 44-12.543 44 11.138 44 12.543z" fill="#3f3d56"/><path d="M846.783 529.203l-2.18-13.64a6.574 6.574 0 00-7.52-5.45l-22.49 3.59-38.52 6.15-12.53 2h27.18a2.501 2.501 0 012.5 2.5v1.97a2.501 2.501 0 01-2.5 2.5h-69.17a6.332 6.332 0 00-2.43 2 6.487 6.487 0 00-1.24 4.96l.62 3.88.75 4.71.81 5.06a6.56 6.56 0 007.5 5.44l17.87-2.85 51.54-8.23 44.36-7.08a6.587 6.587 0 005.45-7.51z" fill="#6c63ff"/><path d="M744.063 530.823a6.356 6.356 0 00-2.53-2h-19.12a6.321 6.321 0 00-2.54 2 6.465 6.465 0 00-1.37 3.99v76.21a6.56 6.56 0 006.55 6.55h13.83a6.56 6.56 0 006.55-6.55v-76.21a6.484 6.484 0 00-1.37-3.99zM785.683 401.023l-.13-.17-8.58-10.57a6.315 6.315 0 00-1.63-1.43 4.813 4.813 0 00-1.06-.54 6.3 6.3 0 00-1.71-.42 6.648 6.648 0 00-1.18-.02.032.032 0 00-.02.01 6.485 6.485 0 00-3.62 1.44l-17.61 14.28-22.63 18.36-33.77 27.4-2.46 2h42.73l2.47-2 8.17-6.63.58-.46 39.46-32.01.03-.02a6.457 6.457 0 001.87-2.45 6.6 6.6 0 00.52-1.97 6.501 6.501 0 00-1.43-4.8z" fill="#6c63ff"/><path d="M785.553 400.853a16.303 16.303 0 00-3.56-7.3 16.118 16.118 0 00-6.65-4.7c-.4-.15-.79-.29-1.19-.4a17.148 17.148 0 00-2.76-.58.032.032 0 00-.02.01 16.314 16.314 0 00-11.8 3.26l-30.46 23.28a6.462 6.462 0 00-2.15 4.57 6.633 6.633 0 00.55 2.97c.1.21.21.42.33.62a5.756 5.756 0 00.84 1.12l4.88 5.48 11.35 12.73.32.36.73.83a6.55 6.55 0 009.27.41l26.27-28.22a16.214 16.214 0 003.19-5.03 16.466 16.466 0 00.86-9.41z" fill="#2f2e41"/><circle cx="797.167" cy="314.521" r="50.122" fill="#6c63ff"/><path d="M815.964 522.303l-1.37-8.6-.81-5.05a6.563 6.563 0 00-7.51-5.44l-36.43 5.81-9.88 1.58-2 .32v10.93h32.76a2.501 2.501 0 012.5 2.5v1.97a2.501 2.501 0 01-2.5 2.5h-103.67c0 .02.01.04.01.06l.62 3.88 1.56 9.76a6.56 6.56 0 007.5 5.44l17.87-2.85 3.89-.62.75-.12 26.18-4.18 17.81-2.85 28.26-4.51.42-.07 18.59-2.96a6.568 6.568 0 005.45-7.5z" fill="#6c63ff"/><path d="M865.384 485.523c0 40.86-4.15 65.3-68.15 58.3l-.26-.03a190.03 190.03 0 01-33.73-6.45 100.174 100.174 0 01-16.64-6.52c-1.26-.64-2.47-1.31-3.66-2h47.78a2.501 2.501 0 002.5-2.5v-1.97a2.501 2.501 0 00-2.5-2.5h-32.76v-63.16a7.34 7.34 0 00-7.33-7.33h-26.65c.23-.66.46-1.33.71-2a163.83 163.83 0 018.87-20.18 153.933 153.933 0 0116.58-25.58 106.531 106.531 0 0114.84-15.19c10.03-8.28 20.95-13.4 32.03-13.4 40.86 0 68.37 69.65 68.37 110.51zM798.22 333.097l.052-1.873c-3.484-.096-6.556-.315-8.865-2.002a5.758 5.758 0 01-2.23-4.24 3.291 3.291 0 011.08-2.711c1.532-1.294 3.998-.875 5.795-.051l1.55.71-2.972-21.718-1.856.254 2.528 18.474a6.612 6.612 0 00-6.254.9 5.124 5.124 0 00-1.743 4.207 7.616 7.616 0 002.997 5.688c2.966 2.168 6.82 2.276 9.918 2.362zM771.509 303.059h10.088v1.873h-10.088zM803.351 303.059h10.088v1.873h-10.088z" fill="#2f2e41"/><path d="M837.169 300.75c-3.899-5.869-10.758-8.356-17.521-8.961-7.614-.681-14.97.787-22.403 2.213-8.18 1.57-16.838 3.039-25.08 1.054a24.725 24.725 0 01-16.808-13.578 31.627 31.627 0 01-1.841-21.088c1.931-7.48 6.726-14.06 12.538-19.032 11.862-10.145 27.916-14.704 43.356-14.275a73.301 73.301 0 0142.495 14.942 69.02 69.02 0 0124.485 38.37 71.952 71.952 0 01-3.484 45.258c-3.379 7.838-8.266 14.904-12.036 22.545-3.511 7.114-6.215 15.385-4.03 23.32 1.916 6.963 7.544 13.149 14.609 15.039a15.342 15.342 0 0017.06-6.965c3.532-5.569 3.616-12.863-1.686-17.36a13.016 13.016 0 00-18.778 1.874 13.398 13.398 0 00-2.68 9.823c.262 1.77-2.445 2.532-2.709.747a15.849 15.849 0 0129.55-10.233c3.198 6.012 1.473 13.264-2.586 18.403a17.938 17.938 0 01-18.29 6.577c-7.389-1.706-13.433-7.58-16.276-14.48-3.165-7.684-1.715-16.257 1.37-23.713 3.335-8.059 8.288-15.287 12.204-23.053a65.656 65.656 0 006.662-22.432 70.98 70.98 0 00-10.123-44.96 65.97 65.97 0 00-36.336-27.616 68.944 68.944 0 00-45.62 1.207c-14.277 5.625-28.062 17.883-27.896 34.347.07 7.033 2.681 14.205 8.068 18.896 6.438 5.606 15.402 6.085 23.494 5.21 8.145-.88 16.053-3.259 24.233-3.866 7.114-.527 14.79.021 21.141 3.556a21.138 21.138 0 017.344 6.812c1.003 1.51-1.43 2.919-2.426 1.418z" fill="#2f2e41"/><path d="M826.964 415.353l-3.97-2.76-7.39-5.13a6.564 6.564 0 00-9.12 1.65l-24.09 34.67-22.43 32.28-2 2.88v42.91h.18a6.531 6.531 0 004.09-2 5.83 5.83 0 00.63-.77l6.98-10.06 17.25-24.83 17.88-25.72 1.7-2.45 21.92-31.55a5.682 5.682 0 00.33-.52 5.269 5.269 0 00.27-.53 6.55 6.55 0 00-2.23-8.07z" fill="#6c63ff"/><path d="M827.033 401.633a16.088 16.088 0 00-2.22-1.22 16.359 16.359 0 00-19.98 5.16l-22.76 30.86a6.525 6.525 0 002.18 9.04l20.72 13 .26.16 1.04.65a6.573 6.573 0 009.01-2.2l16.07-31.9.27-.53.01-.01.99-1.99a16.363 16.363 0 00-5.59-21.02z" fill="#2f2e41"/><path d="M687.683 528.823v75.29a6.56 6.56 0 006.55 6.55h13.83a6.56 6.56 0 006.55-6.55v-75.29z" fill="#6c63ff"/><path d="M790.723 519.853h-30.76v-61.16a9.34 9.34 0 00-9.33-9.33h-114.07a9.342 9.342 0 00-9.34 9.33v62.8a9.342 9.342 0 009.34 9.33h154.16c.16 0 .31-.01.46-.02.14-.01.28-.04.42-.06a4.516 4.516 0 003.62-4.42v-1.97a4.5 4.5 0 00-4.5-4.5zm0 8.97h-154.16a7.343 7.343 0 01-7.34-7.33v-62.8a7.343 7.343 0 017.34-7.33h114.07a7.34 7.34 0 017.33 7.33v63.16h32.76a2.501 2.501 0 012.5 2.5v1.97a2.501 2.501 0 01-2.5 2.5z" fill="#3f3d56"/><circle cx="693.595" cy="490.094" r="7.69" fill="#6c63ff"/><circle cx="121.996" cy="307.821" r="53.519" fill="#6c63ff"/><path d="M111.563 509.153h-14.76a6.506 6.506 0 00-6.5 6.5v123.01a6.506 6.506 0 006.5 6.5h14.76a6.506 6.506 0 006.5-6.5v-123.01a6.506 6.506 0 00-6.5-6.5zM142.753 509.153h-14.76a6.506 6.506 0 00-6.5 6.5v123.01a6.506 6.506 0 006.5 6.5h14.76a6.5 6.5 0 006.5-6.5v-123.01a6.5 6.5 0 00-6.5-6.5z" fill="#2f2e41"/><path d="M153.443 389.403a40.533 40.533 0 00-72.59 24.77v108.94a5.36 5.36 0 00.08.99 6.996 6.996 0 006.92 6.01h67.07a7.014 7.014 0 007-7v-108.94a40.25 40.25 0 00-8.48-24.77zM167.192 331.48l-.056-2c3.72-.104 7.001-.338 9.466-2.138a6.148 6.148 0 002.381-4.529 3.514 3.514 0 00-1.153-2.894c-1.636-1.382-4.269-.935-6.188-.055l-1.654.759 3.173-23.19 1.981.27-2.699 19.727c2.608-.766 5.024-.436 6.678.961a5.471 5.471 0 011.86 4.493 8.133 8.133 0 01-3.2 6.073c-3.166 2.314-7.282 2.43-10.59 2.522zM150.942 299.405h10.771v2h-10.771z" fill="#2f2e41"/><path d="M106.303 390.943a6.45 6.45 0 00-4.52-2.09l-11.63-.48-3.11-.13a6.51 6.51 0 00-6.77 6.22l-1.84 44.32-3.25 78.59a6.51 6.51 0 005.75 6.73c.16.02.31.03.47.04l8.9.37 5.85.24a6.47 6.47 0 001.4-.09 6.535 6.535 0 003.27-1.62 6.45 6.45 0 002.09-4.52l.39-9.37 2.87-69.31 1.84-44.23a6.498 6.498 0 00-1.71-4.67z" fill="#6c63ff"/><path d="M97.783 381.243a18.089 18.089 0 00-3.78-.39 18.522 18.522 0 00-18.5 18.5v34a6.528 6.528 0 002.93 5.43 6.406 6.406 0 002.42.96 6.23 6.23 0 001.15.11h24a.92.92 0 00.17-.01 6.496 6.496 0 006.33-6.49v-34a18.53 18.53 0 00-14.72-18.11z" fill="#2f2e41"/><path d="M225.964 478.073a7.484 7.484 0 01-3.7-8.91l5.69-18.11-1.66-1.38-43.67-36.13-29.18-24.14-3.55-2.94a6.5 6.5 0 00-9.15.86l-9.41 11.38a6.488 6.488 0 00.86 9.15l29.73 24.6 3.38 2.79 61.67 51.02a6.493 6.493 0 008.15.12 5.89 5.89 0 00.88-.85 1.38 1.38 0 00.12-.13l1.19-1.44z" fill="#6c63ff"/><path d="M180.523 406.603l-26.31-21.53a18.5 18.5 0 00-23.44 28.63l26.31 21.53a6.496 6.496 0 008.22.01 5.387 5.387 0 00.93-.92l15.2-18.57a6.427 6.427 0 001.19-2.21 6.535 6.535 0 00-2.1-6.94zM108.579 316.882c-2.787-4.655-4.968-9.785-3.933-15.302.924-4.926 4.47-8.762 9.567-9.265 3.07-.304 6.124.516 9.123 1.05a34.246 34.246 0 007.447.482 36.994 36.994 0 0014.452-3.664 35.47 35.47 0 0019.056-22.331c3.042-11.074.783-23.65-6.44-32.663l2.507-.662-3.265 10.724a1.515 1.515 0 01-2.203.897 51.664 51.664 0 00-40.2-6.427 48.947 48.947 0 00-11.032 4.242c-1.704.906-3.221-1.682-1.514-2.59a54.697 54.697 0 0142.915-3.287 52.214 52.214 0 0111.345 5.471l-2.203.897 3.264-10.724a1.512 1.512 0 012.507-.662 40.207 40.207 0 018.241 30.483 37.94 37.94 0 01-16.428 26.318 40.458 40.458 0 01-30.554 6.142c-2.936-.564-6.265-1.372-9.146-.143a7.9 7.9 0 00-4.234 5.208c-1.633 5.531 1.145 10.784 3.982 15.383z" fill="#2f2e41"/><path d="M303.823 427.683l-49.47-28.63a9.503 9.503 0 00-13.82 5.37l-14.24 45.25-5.94 18.89a9.483 9.483 0 004.69 11.28l10.96 5.69 35.76 18.55a9.478 9.478 0 004.38 1.07 9.655 9.655 0 003.3-.59l.07-.03a9.55 9.55 0 005.5-5.48l22.92-59.75a9.459 9.459 0 00-4.11-11.62zm2.24 10.91l-22.92 59.75a7.529 7.529 0 01-4.35 4.32l-.05.02a7.532 7.532 0 01-6.06-.37l-35.37-18.35-11.35-5.89a7.484 7.484 0 01-3.7-8.91l5.69-18.11 14.48-46.03a7.517 7.517 0 0110.91-4.24l49.47 28.63a7.47 7.47 0 013.25 9.18z" fill="#3f3d56"/><path d="M287.226 446.827a2.99 2.99 0 01-1.434-.366l-33-18a3 3 0 012.873-5.268l33 18a3 3 0 01-1.44 5.634zM281.226 459.827a2.99 2.99 0 01-1.434-.366l-33-18a3 3 0 012.873-5.268l33 18a3 3 0 01-1.44 5.634zM276.226 473.827a2.99 2.99 0 01-1.434-.366l-33-18a3 3 0 012.873-5.268l33 18a3 3 0 01-1.44 5.634z" fill="#6c63ff"/><path d="M625.199 190.543H486.47a7.53 7.53 0 01-7.521-7.522V7.521A7.53 7.53 0 01486.47 0H625.2a7.53 7.53 0 017.521 7.521v175.5a7.53 7.53 0 01-7.521 7.522zM486.47 1.67a5.857 5.857 0 00-5.85 5.85v175.5a5.857 5.857 0 005.85 5.85H625.2a5.857 5.857 0 005.85-5.85V7.521a5.857 5.857 0 00-5.85-5.85z" fill="#3f3d56"/><path d="M544.295 84.358h-30.537a3.765 3.765 0 01-3.761-3.76V44.562a3.765 3.765 0 013.76-3.76h30.538a3.765 3.765 0 013.76 3.76v36.036a3.765 3.765 0 01-3.76 3.76z" fill="#6c63ff"/><path d="M603.63 101.073h-30.537a3.765 3.765 0 01-3.76-3.761V61.276a3.765 3.765 0 013.76-3.76h30.537a3.765 3.765 0 013.761 3.76v36.036a3.765 3.765 0 01-3.76 3.76z" fill="#ccc"/><path d="M555.995 152.051h-30.537a3.765 3.765 0 01-3.761-3.76v-36.036a3.765 3.765 0 013.76-3.76h30.538a3.765 3.765 0 013.76 3.76v36.036a3.765 3.765 0 01-3.76 3.76z" fill="#ff6584"/><path d="M444.238 143.107a7.602 7.602 0 00-6.95-4.65h-138.73a7.524 7.524 0 00-7.52 7.52v175.5a7.524 7.524 0 007.52 7.52h138.73a7.53 7.53 0 007.52-7.52v-175.5a7.383 7.383 0 00-.57-2.87zm-1.1 178.37a5.857 5.857 0 01-5.85 5.85h-138.73a5.851 5.851 0 01-5.85-5.85v-175.5a5.858 5.858 0 015.85-5.85h138.73a5.88 5.88 0 015.43 3.68 6.493 6.493 0 01.22.66 5.795 5.795 0 01.2 1.51z" fill="#3f3d56"/><path d="M415.283 179.893h-41.786a3.343 3.343 0 110-6.686h41.786a3.343 3.343 0 010 6.686zM415.283 197.443h-41.786a3.343 3.343 0 110-6.686h41.786a3.343 3.343 0 110 6.686z" fill="#3f3d56"/><path d="M352.057 207.436H321.52a3.765 3.765 0 01-3.76-3.76v-36.037a3.765 3.765 0 013.76-3.76h30.537a3.765 3.765 0 013.76 3.76v36.036a3.765 3.765 0 01-3.76 3.76z" fill="#6c63ff"/><path d="M414.993 233.378h-94.435a3.343 3.343 0 110-6.685h94.435a3.343 3.343 0 010 6.685zM414.993 250.928h-94.435a3.343 3.343 0 110-6.685h94.435a3.343 3.343 0 010 6.685zM414.993 268.478h-94.435a3.343 3.343 0 110-6.685h94.435a3.343 3.343 0 010 6.685zM414.993 286.028h-94.435a3.343 3.343 0 110-6.685h94.435a3.343 3.343 0 010 6.685zM414.993 303.578h-94.435a3.343 3.343 0 110-6.685h94.435a3.343 3.343 0 010 6.685z" fill="#ccc"/><path fill="#e6e6e6" d="M470.307 285.004l79.086-75.295 1.153 1.211-79.086 75.295z"/><path fill="#e6e6e6" d="M469.569 286.858l10.038-.118-.018-1.673-8.242.099.504-8.226-1.67-.101-.612 10.019zM551.281 209.063l-.61 10.02-1.67-.1.503-8.227-8.241.099-.018-1.672 10.036-.12z"/><circle cx="510.426" cy="247.962" r="9.193" fill="#e6e6e6"/><path fill="#e6e6e6" d="M364.307 107.004l79.086-75.295 1.153 1.211-79.086 75.295z"/><path fill="#e6e6e6" d="M363.569 108.858l10.038-.118-.018-1.673-8.242.099.504-8.226-1.67-.101-.612 10.019zM445.281 31.063l-.61 10.02-1.67-.1.503-8.227-8.241.099-.018-1.672 10.036-.12z"/><circle cx="404.426" cy="69.962" r="9.193" fill="#e6e6e6"/><path fill="#3f3d56" d="M757.933 520.913h2v9h-2z"/></svg>