<svg xmlns="http://www.w3.org/2000/svg" width="12.528" height="11.991" viewBox="0 0 12.528 11.991"><defs><style>.a{fill:#ffd800;}</style></defs><path class="a" d="M2590.994,892.247l1.041,2.864a.774.774,0,0,0,.7.509l3.046.106a.774.774,0,0,1,.449,1.384l-2.4,1.876a.774.774,0,0,0-.267.824l.841,2.929a.774.774,0,0,1-1.177.855l-2.526-1.7a.775.775,0,0,0-.866,0l-2.526,1.7a.774.774,0,0,1-1.177-.855l.841-2.929a.774.774,0,0,0-.268-.824l-2.4-1.876a.774.774,0,0,1,.449-1.384l3.046-.106a.774.774,0,0,0,.7-.509l1.042-2.864A.774.774,0,0,1,2590.994,892.247Z" transform="translate(-2584.002 -891.737)"/></svg>